<svg xmlns:xlink="http://www.w3.org/1999/xlink" onmousedown="ModifyTree(evt)" height="232.4" width="273" viewBox="0 -140 273 232.4"><defs><marker id="markerArrow" markerWidth="13" markerHeight="13" refX="11" refY="5" orient="auto"><path d="M2,2 L4,5 2,8 L12,5 L2,2" fill="black" stroke-width="1"></path></marker><marker id="markerArrowInv" markerWidth="13" markerHeight="13" refX="3" refY="5" orient="auto"><path d="M2,5 L12,2 10,5 L12,8 L2,5" fill="black" stroke-width="1"></path></marker></defs><rect id="rect_4_VERB_____መጣች_root" x="168" width="50" y="5" height="56.4" stroke="black" fill="#fffff4" rx="5" ry="25" class="wordnode"></rect><text id="word1_4" class="words wordform" font-size="12" font-weight="bold" x="193" y="19.4" text-anchor="middle">መጣች</text><text id="lemma1_4" class="words wordlemma" font-size="10" x="193" y="31.4" text-anchor="middle">_</text><text id="id1_4" class="words wordid" font-size="10" x="193" y="43.4" text-anchor="middle">4</text><text id="pos1_4" font-size="10" class="words wordupos" x="193" y="55.4" text-anchor="middle" fill="blue">VERB</text><rect id="rect_2_NOUN_____ዮሴፍ_obl" x="56" width="50" y="5" height="56.4" stroke="black" fill="#fffff4" rx="5" ry="25" class="wordnode"></rect><text id="word1_2" class="words wordform" font-size="12" font-weight="bold" x="81" y="19.4" text-anchor="middle">ዮሴፍ</text><text id="lemma1_2" class="words wordlemma" font-size="10" x="81" y="31.4" text-anchor="middle">_</text><text id="id1_2" class="words wordid" font-size="10" x="81" y="43.4" text-anchor="middle">2</text><text id="pos1_2" font-size="10" class="words wordupos" x="81" y="55.4" text-anchor="middle" fill="blue">NOUN</text><rect id="rect_1_ADP_____ከ_case" x="0" width="50" y="5" height="56.4" stroke="black" fill="#fffff4" rx="5" ry="25" class="wordnode"></rect><text id="word1_1" class="words wordform" font-size="12" font-weight="bold" x="25" y="19.4" text-anchor="middle">ከ</text><text id="lemma1_1" class="words wordlemma" font-size="10" x="25" y="31.4" text-anchor="middle">_</text><text id="id1_1" class="words wordid" font-size="10" x="25" y="43.4" text-anchor="middle">1</text><text id="pos1_1" font-size="10" class="words wordupos" x="25" y="55.4" text-anchor="middle" fill="blue">ADP</text><path id="path_2_1_case" stroke="blue" class="deprel_followinghead" opacity="1" fill="none" d=" M25,5 L28.75,-7.5 C32.5,-20 37.75,-20 43,-20 L43,-20 58,-20 C63.25,-20 68.5,-20 72.25,-7.5 L76,5" style="marker-start: url(#markerArrowInv);"></path><text id="textpath_2_1_case" font-size="14" dy="-3" text-anchor="middle"><textPath xlink:href="#path_2_1_case" id="textpath_2_1_case" class="deprel" fill="#008800" startOffset="50%">case</textPath></text><path id="mwe_1_2_ከዮሴፍ" stroke="#888888" stroke-width="10" opacity="1" fill="none" d="M 5 82.4 L 101 82.4"></path><text id="mwetextundefined" font-size="14" dy="-8" text-anchor="middle"><textPath xlink:href="#mwe_1_2_ከዮሴፍ" id="mwetextpath_1_2" fill="#888888" startOffset="50%">ከዮሴፍ</textPath></text><rect id="rect_3_ADP_____ጋር_case" x="112" width="50" y="5" height="56.4" stroke="black" fill="#fffff4" rx="5" ry="25" class="wordnode"></rect><text id="word1_3" class="words wordform" font-size="12" font-weight="bold" x="137" y="19.4" text-anchor="middle">ጋር</text><text id="lemma1_3" class="words wordlemma" font-size="10" x="137" y="31.4" text-anchor="middle">_</text><text id="id1_3" class="words wordid" font-size="10" x="137" y="43.4" text-anchor="middle">3</text><text id="pos1_3" font-size="10" class="words wordupos" x="137" y="55.4" text-anchor="middle" fill="blue">ADP</text><path id="path_2_3_case" stroke="#880088" class="deprel_precedinghead" opacity="1" fill="none" d=" M86,5 L89.75,-7.5 C93.5,-20 98.75,-20 104,-20 L104,-20 119,-20 C124.25,-20 129.5,-20 133.25,-7.5 L137,5" style="marker-end: url(#markerArrow);"></path><text id="textpath_2_3_case" font-size="14" dy="-3" text-anchor="middle"><textPath xlink:href="#path_2_3_case" id="textpath_2_3_case" class="deprel" fill="#008800" startOffset="50%">case</textPath></text><path id="path_4_2_obl" stroke="blue" class="deprel_followinghead" opacity="1" fill="none" d=" M81,5 L84.75,-20 C88.5,-45 93.75,-45 99,-45 L99,-45 170,-45 C175.25,-45 180.5,-45 184.25,-20 L188,5" style="marker-start: url(#markerArrowInv);"></path><text id="textpath_4_2_obl" font-size="14" dy="-3" text-anchor="middle"><textPath xlink:href="#path_4_2_obl" id="textpath_4_2_obl" class="deprel" fill="#008800" startOffset="50%">obl</textPath></text><path id="path_0_4_root" stroke="red" opacity="1" fill="none" d="M 193 -140 L 193 4" style="marker-end: url(#markerArrow);" class="deprel_root"></path><text id="deprel1_4" class="words deprel" fill="green" x="193" y="-120" text-anchor="middle">root</text></svg>